<svg width="19" height="19" viewBox="0 0 19 19" fill="none" xmlns="http://www.w3.org/2000/svg">
<rect width="19" height="19" fill="#F5F5F5"/>
<rect width="360" height="800" transform="translate(-126 -84)" fill="#2D3250"/>
<path d="M4.46555 14.4129C4.3072 14.3812 4.18051 14.3495 4.02216 14.2862C3.86381 14.2228 3.73713 14.1912 3.61044 14.1278C3.32541 14.0011 3.07204 13.8428 2.81868 13.6528C2.31195 13.3044 1.90023 12.8293 1.58353 12.2593C1.26682 11.7209 1.0768 11.0875 1.04513 10.4857C1.01346 10.169 1.04513 9.88397 1.0768 9.56726C1.10847 9.40891 1.14014 9.28223 1.17181 9.12387C1.20348 8.96552 1.26682 8.83884 1.29849 8.68049L1.33016 9.12387C1.33016 9.28223 1.36183 9.40891 1.3935 9.56726C1.42518 9.8523 1.48852 10.1373 1.55186 10.3907C1.67854 10.9291 1.86856 11.4358 2.1536 11.9109C2.43863 12.3859 2.75534 12.8293 3.16706 13.241C3.35708 13.4311 3.57877 13.6211 3.80047 13.8111C3.89548 13.9061 4.02216 14.0011 4.14884 14.0962L4.46555 14.4129ZM4.37054 15.553C4.27553 15.6163 4.14884 15.648 4.02216 15.6797C3.89548 15.7114 3.80047 15.743 3.67379 15.743C3.45209 15.7747 3.19873 15.8064 2.94536 15.7747C2.4703 15.743 1.96357 15.6163 1.55186 15.3946C1.10847 15.173 0.728423 14.8246 0.475058 14.4129C0.348376 14.2228 0.221694 14.0011 0.126682 13.7794C0.0950117 13.6844 0.0633411 13.5578 0.0316705 13.4311C0.0316705 13.3361 0 13.241 0 13.1144C0.0950117 13.2094 0.158353 13.3044 0.221694 13.3677C0.316706 13.4627 0.380047 13.5578 0.443388 13.6211C0.601741 13.7794 0.728423 13.9378 0.886776 14.0645C1.20348 14.3495 1.52019 14.6029 1.90023 14.7929C2.24861 14.9829 2.66033 15.1413 3.04037 15.268C3.2304 15.3313 3.45209 15.363 3.67379 15.4263C3.7688 15.458 3.89548 15.458 3.99049 15.4897C4.14884 15.5213 4.24386 15.5213 4.37054 15.553ZM11.5281 0.161106C11.6864 0.192777 11.8131 0.256118 11.9715 0.319459C12.1298 0.3828 12.2565 0.446141 12.3832 0.509482C12.6682 0.667835 12.9216 0.826188 13.175 1.01621C13.6817 1.39626 14.0934 1.90299 14.3784 2.47306C14.6635 3.04313 14.8218 3.67654 14.8218 4.27828C14.8218 4.59498 14.7902 4.88002 14.7268 5.19672C14.6951 5.35508 14.6635 5.48176 14.6001 5.64011C14.5368 5.79847 14.5051 5.92515 14.4418 6.05183L14.4101 5.60844C14.4101 5.45009 14.4101 5.32341 14.3784 5.16505L14.2834 4.30995C14.1884 3.77155 13.9984 3.23315 13.745 2.72642C13.4917 2.21969 13.175 1.7763 12.7949 1.36459C12.6049 1.14289 12.3832 0.95287 12.1932 0.731176C12.0982 0.636165 11.9715 0.541153 11.8448 0.446141L11.5281 0.161106ZM14.2834 0.0344238C14.4101 0.0660944 14.5051 0.097765 14.6001 0.161106C14.6951 0.192777 14.8218 0.256118 14.9168 0.319459C15.1069 0.446141 15.2969 0.572823 15.4869 0.731176C15.8353 1.04788 16.1203 1.42793 16.2787 1.87132C16.4687 2.3147 16.532 2.78976 16.4687 3.26482C16.437 3.48652 16.3737 3.70821 16.3103 3.9299C16.2787 4.02491 16.2153 4.1516 16.1837 4.24661C16.1203 4.34162 16.0886 4.43663 15.9936 4.53164V4.21494V3.89823C15.9936 3.67654 15.962 3.48651 15.962 3.29649C15.8986 2.88477 15.8353 2.50473 15.6769 2.15635C15.5186 1.7763 15.3286 1.4596 15.1069 1.11122C14.9802 0.95287 14.8535 0.762847 14.7268 0.604494C14.6635 0.509482 14.6001 0.446141 14.5051 0.351129C14.4418 0.192777 14.3468 0.097765 14.2834 0.0344238Z" fill="#42ADE2"/>
<path d="M2.53359 4.7533C1.90017 5.03834 1.67848 5.79843 1.96352 6.43184L5.95401 14.7612L8.17094 13.7161L4.18045 5.35504C3.89542 4.72163 3.167 4.4366 2.53359 4.7533ZM13.0165 11.3724L15.3602 10.264L10.7996 0.762812C10.4829 0.129401 9.7228 -0.155634 9.05772 0.161071C8.42431 0.477777 8.13927 1.23787 8.45598 1.90295L13.0165 11.3724Z" fill="#FFDD67"/>
<path d="M9.08944 0.129382C9.0261 0.161052 8.96276 0.192723 8.89941 0.256064C9.50115 0.0977109 10.1346 0.382746 10.4196 0.952816L14.9802 10.454L15.3919 10.264L10.8313 0.762793C10.5146 0.097711 9.75452 -0.187324 9.08944 0.129382Z" fill="#EBA352"/>
<path d="M8.17106 13.6843L10.6097 12.5125L5.95412 2.82132C5.63742 2.15624 4.81398 1.83953 4.1489 2.15624C3.48382 2.47294 3.19878 3.29638 3.51549 3.96146L8.17106 13.6843Z" fill="#FFDD67"/>
<path d="M4.14889 2.18792C4.08554 2.21959 4.0222 2.25126 3.95886 2.3146C4.5606 2.15625 5.25736 2.44128 5.54239 3.04302L8.42441 9.0921L9.12116 9.50382L5.95411 2.853C5.6374 2.15625 4.84564 1.87121 4.14889 2.18792Z" fill="#EBA352"/>
<path d="M10.2295 11.7525L12.6682 10.5807L8.01259 0.889488C7.69589 0.224406 6.87245 -0.0922993 6.20737 0.256077C5.54229 0.572782 5.25726 1.39622 5.57396 2.0613L10.2295 11.7525Z" fill="#FFDD67"/>
<path d="M6.20744 0.224417C6.1441 0.256088 6.08075 0.319429 6.01741 0.351099C6.61915 0.192747 7.31591 0.477782 7.60094 1.07952L10.863 7.92036L11.5598 8.33208L8.01266 0.889499C7.69595 0.192747 6.87252 -0.0922884 6.20744 0.224417ZM2.53365 4.75331C2.47031 4.78498 2.40697 4.81665 2.34363 4.87999C2.9137 4.72164 3.51544 5.00667 3.7688 5.57674L6.1441 10.549L6.84085 10.9607L4.18052 5.38672C3.89549 4.72164 3.16706 4.4366 2.53365 4.75331Z" fill="#EBA352"/>
<path d="M18.6223 3.80322C17.7672 3.13814 16.3737 3.86656 15.6769 6.14684C15.2018 7.73037 15.1385 8.20543 14.125 8.68049L13.555 7.50868C13.555 7.50868 4.56054 11.8475 4.90891 12.5443C4.90891 12.5443 5.98571 15.9014 7.8226 17.4532C10.5463 19.7969 16.9121 17.2949 17.1971 11.2458C17.3554 7.73037 19.5407 4.53164 18.6223 3.80322Z" fill="#FFDD67"/>
<path d="M18.6223 3.80311C18.4639 3.67643 18.2739 3.61309 18.0839 3.58142C18.1156 3.61309 18.1789 3.61309 18.2106 3.64476C19.1607 4.37318 18.1789 6.05172 17.6405 7.57191C17.1971 8.77539 16.8171 10.0105 16.8804 11.214C17.1338 16.4713 11.8448 18.9733 8.67773 18.0232C11.7814 19.3217 17.5455 16.8514 17.2921 11.3724C17.2288 10.1689 17.5772 8.99709 18.0522 7.73026C18.5589 6.21008 19.5407 4.53154 18.6223 3.80311Z" fill="#EBA352"/>
<path d="M14.4101 8.55371C12.4466 8.7754 9.56455 11.5941 11.5915 14.6661C10.1029 11.5624 12.5416 9.47216 14.0934 8.74373C14.2518 8.61705 14.4101 8.55371 14.4101 8.55371Z" fill="#EBA352"/>
</svg>
