<svg width="22" height="22" viewBox="0 0 22 22" fill="none" xmlns="http://www.w3.org/2000/svg">
<path d="M13.5432 5.02742L15.2994 2.59967" stroke="#B0BEC5" stroke-width="0.727962" stroke-miterlimit="10" stroke-linecap="round" stroke-linejoin="round"/>
<path d="M8.24722 5.01104L6.59839 2.89813" stroke="#B0BEC5" stroke-width="0.727962" stroke-miterlimit="10" stroke-linecap="round" stroke-linejoin="round"/>
<path d="M10.8643 4.31587L10.8715 1" stroke="#B0BEC5" stroke-width="0.727962" stroke-miterlimit="10" stroke-linecap="round" stroke-linejoin="round"/>
<path d="M6.42732 18.3874C6.59475 18.0635 7.54657 18.007 8.23449 16.2872C8.58937 15.4009 8.31639 14.4273 9.9088 13.8831C10.4894 13.6848 10.6659 12.5601 9.60124 12.5601C7.53929 12.5601 7.12799 13.9359 7.12799 13.9359C7.12799 13.9359 7.06065 8.68185 7.02789 7.87563C7.00241 7.25687 6.71851 6.73273 6.35271 6.64356C5.72666 6.49251 5.42819 6.95294 5.42819 6.95294C5.42819 6.95294 5.42092 6.80735 5.42092 6.22316C5.42092 5.40966 4.97322 5.10756 4.46183 5.07116C3.94861 5.03476 3.40082 5.33504 3.36806 6.16674L3.39354 6.70907C3.39354 6.70907 3.20245 6.42153 2.6219 6.38149C2.16328 6.35055 1.8721 6.70179 1.8266 7.21319L1.70831 8.01759C1.70831 8.01759 1.5518 7.94115 1.10592 8.0649C0.572687 8.21414 0.539928 9.14957 0.539928 9.14957C0.539928 9.14957 0.363397 11.6192 0.185047 14.6384C0.079492 16.4183 1.00946 17.8214 1.41712 18.3729C1.65735 18.6968 1.49538 20.979 1.42804 21.8161H6.34361C6.28901 21.1937 6.23259 19.8324 6.22895 19.7451C6.21803 19.3083 6.22713 18.7769 6.42732 18.3874Z" fill="url(#paint0_radial_25_47)"/>
<path d="M6.6057 18.573C6.81317 18.2254 7.44286 18.0052 7.94152 17.33C8.38739 16.7258 8.54754 15.9287 8.59668 15.7012C8.74045 15.0424 8.86603 14.4727 9.96889 14.096C10.3529 13.9614 10.6095 13.51 10.5403 13.0878C10.4712 12.6729 10.1218 12.4254 9.60309 12.4254C8.3328 12.4254 7.46288 13.0478 7.24631 13.4354C7.19717 12.2889 7.15168 7.86285 7.14986 7.84829C7.05886 6.9256 6.87687 6.55434 6.44009 6.38508C6.10705 6.25587 5.75217 6.35233 5.49738 6.51794C5.49738 6.51794 5.63023 4.89276 4.47459 4.89276C3.1679 4.89276 3.22978 6.34141 3.22978 6.35233C3.07509 6.26497 2.86762 6.18489 2.61283 6.20309C1.51725 6.27953 1.56639 7.76639 1.56639 7.76639C1.31706 7.70088 0.550878 7.59168 0.352508 8.67089C0.252413 9.21504 0.00854599 14.6256 0.00854599 14.6256C-0.0951886 16.3909 0.771086 17.7977 1.21696 18.4001L1.2752 18.4784C1.41715 18.6713 1.37894 20.675 1.25882 21.8161H1.61552C1.70288 20.9753 1.82481 18.624 1.55729 18.2636L1.49905 18.1854C1.07501 17.6157 0.263333 16.2817 0.359788 14.6438L0.638233 9.05671C0.71285 7.85739 1.53909 7.98478 1.57548 8.39426V12.4472C1.41169 12.5491 1.31706 12.6219 1.3025 12.6328C1.22606 12.6929 1.2115 12.8039 1.27338 12.8821C1.30796 12.9258 1.36074 12.9495 1.41351 12.9495C1.45173 12.9495 1.48995 12.9367 1.52271 12.9113C1.53727 12.9003 2.84578 11.9649 5.02057 11.8466C5.02057 11.8466 5.38819 11.7829 5.39365 11.3243C5.39365 11.2479 5.44642 7.74091 5.45552 7.41515C5.46644 7.03479 5.8468 6.63623 6.28904 6.8073C6.59297 6.9256 6.66576 7.14762 6.75494 7.88105C6.75676 7.90471 6.75858 13.6465 6.75858 13.6465C4.8222 13.8467 3.96684 14.5346 3.55918 16.1416C3.52278 16.2836 3.55736 16.3345 3.63016 16.4055C3.63744 16.4109 3.75573 16.4382 3.84127 16.1889C4.34538 14.7421 5.25715 14.4254 6.07975 14.2635C6.35456 14.2089 6.59115 14.2307 6.81863 14.1852C7.50838 14.1852 7.59573 12.8476 9.60309 12.7802C9.94341 12.7693 10.1509 12.9094 10.1909 13.146C10.231 13.3954 10.0726 13.6811 9.85242 13.7575C8.56028 14.1998 8.40195 14.9223 8.24908 15.6229C8.20176 15.8359 8.14898 16.0542 8.07073 16.2635C7.61211 17.4992 6.55475 17.9306 6.27084 18.3473C6.03971 18.6895 6.00696 19.3046 6.05245 19.7905C6.08703 20.1763 6.12343 21.3993 6.14345 21.8161H6.56567C6.50925 21.1154 6.41279 19.8942 6.40733 19.785C6.39824 19.3483 6.43281 18.8605 6.6057 18.573ZM3.2316 11.7301C2.68745 11.8867 2.24885 12.0777 1.93037 12.2452L1.93765 7.47885C1.95221 7.02751 2.14148 6.58527 2.63103 6.55797C2.94587 6.54342 3.16062 6.72723 3.2316 6.79456V11.7301ZM5.02239 11.439C4.42546 11.4572 4.05602 11.5263 3.58648 11.6373V6.33777C3.62288 5.87915 3.82125 5.24582 4.44912 5.24582C5.03149 5.24582 5.07698 5.81909 5.07698 6.42876C5.07698 7.01113 5.02239 11.439 5.02239 11.439Z" fill="#EDA600"/>
<path d="M20.2969 18.3728C20.7046 17.8214 21.6345 16.4182 21.529 14.6384C21.3506 11.6209 21.1741 9.15134 21.1741 9.15134C21.1741 9.15134 21.1413 8.21591 20.6081 8.06667C20.1622 7.94292 20.0057 8.01936 20.0057 8.01936L19.8874 7.21496C19.8419 6.70356 19.5507 6.35232 19.0921 6.38326C18.5116 6.4233 18.3205 6.71084 18.3205 6.71084L18.346 6.16851C18.3132 5.33681 17.7654 5.03653 17.2522 5.07293C16.7408 5.10933 16.2931 5.41143 16.2931 6.22493C16.2931 6.80912 16.2858 6.95471 16.2858 6.95471C16.2858 6.95471 15.9874 6.49427 15.3613 6.64533C14.9955 6.7345 14.7116 7.25864 14.6861 7.8774C14.6534 8.68362 14.586 13.9377 14.586 13.9377C14.586 13.9377 14.1747 12.5618 12.1128 12.5618C11.0481 12.5618 11.2247 13.6865 11.8052 13.8849C13.3976 14.4291 13.1246 15.4027 13.4795 16.289C14.1675 18.0088 15.1193 18.0652 15.2867 18.3892C15.4869 18.7786 15.496 19.31 15.4851 19.7468C15.4814 19.8342 15.4268 21.1918 15.3722 21.8161H20.2878C20.2186 20.9789 20.0567 18.6967 20.2969 18.3728Z" fill="url(#paint1_radial_25_47)"/>
<path d="M20.4406 18.4765L20.4989 18.3983C20.9466 17.7977 21.811 16.3909 21.7073 14.6238C21.7073 14.6238 21.4634 9.21321 21.3633 8.66905C21.165 7.58803 20.3988 7.69904 20.1495 7.76456C20.1495 7.76456 20.1986 6.2777 19.103 6.20126C18.85 6.18306 18.6407 6.26132 18.4861 6.35049C18.4861 6.33776 18.5479 4.89093 17.2412 4.89093C16.0856 4.89093 16.2185 6.51611 16.2185 6.51611C15.9637 6.35049 15.6088 6.25404 15.2757 6.38325C14.839 6.5525 14.657 6.92377 14.566 7.84646C14.5642 7.86284 14.5205 12.287 14.4695 13.4336C14.253 13.0459 13.3812 12.4235 12.1127 12.4235C11.5941 12.4235 11.2447 12.671 11.1755 13.086C11.1045 13.51 11.3611 13.9613 11.7469 14.0942C12.8498 14.4709 12.9736 15.0405 13.1192 15.6994C13.1683 15.9268 13.3284 16.724 13.7743 17.3282C14.2748 18.0052 14.9045 18.2254 15.1101 18.5712C15.2812 18.8587 15.3158 19.3464 15.3067 19.7832C15.3049 19.8924 15.2066 21.1154 15.1502 21.8161H15.5724C15.5942 21.3975 15.6288 20.1781 15.6634 19.7941C15.7089 19.3064 15.6761 18.6913 15.445 18.351C15.1611 17.9342 14.1037 17.5029 13.6451 16.2672C13.5669 16.0579 13.5141 15.8395 13.4668 15.6266C13.3139 14.9259 13.1556 14.2034 11.8634 13.7612C11.6414 13.6811 11.4831 13.3954 11.5249 13.146C11.565 12.9113 11.7724 12.7693 12.1127 12.7802C14.1201 12.8476 14.2093 14.1852 14.8972 14.1852C15.1247 14.2307 15.3613 14.2088 15.6361 14.2634C16.4587 14.4254 17.3705 14.7421 17.8746 16.1889C17.9619 16.4382 18.0802 16.4128 18.0857 16.4055C18.1585 16.3345 18.1931 16.2835 18.1567 16.1416C17.7472 14.5346 16.8936 13.8467 14.9573 13.6465C14.9573 13.6465 14.9591 7.90469 14.9609 7.88104C15.0501 7.14943 15.1247 6.92558 15.4268 6.80729C15.8672 6.63622 16.2494 7.0366 16.2603 7.41514C16.2694 7.7409 16.3222 11.2479 16.3222 11.3243C16.3258 11.7829 16.6953 11.8466 16.6953 11.8466C18.8682 11.9649 20.1786 12.8985 20.1931 12.9113C20.2259 12.9367 20.2641 12.9495 20.3023 12.9495C20.3551 12.9495 20.4079 12.9258 20.4425 12.8821C20.5025 12.8057 20.4898 12.6947 20.4133 12.6328C20.3988 12.6219 20.3041 12.5491 20.1404 12.4472V8.39425C20.1767 7.98477 21.003 7.85556 21.0758 9.06033L21.3542 14.6474C21.4507 16.2854 20.639 17.6194 20.215 18.189L20.1567 18.2672C19.8892 18.6276 20.0111 20.9716 20.0985 21.8161H20.457C20.3369 20.6768 20.2969 18.6713 20.4406 18.4765ZM18.1275 11.6373C17.6598 11.5263 17.2886 11.4572 16.6916 11.439C16.6916 11.439 16.637 7.01112 16.637 6.42875C16.637 5.81908 16.6844 5.24581 17.2649 5.24581C17.8928 5.24581 18.0911 5.87914 18.1275 6.33776V11.6373ZM18.4824 11.7301V6.79455C18.5516 6.7254 18.7681 6.54158 19.083 6.55796C19.5725 6.58526 19.7618 7.0275 19.7764 7.47884L19.7837 12.2452C19.4652 12.0777 19.0266 11.8866 18.4824 11.7301Z" fill="#EDA600"/>
<defs>
<radialGradient id="paint0_radial_25_47" cx="0" cy="0" r="1" gradientUnits="userSpaceOnUse" gradientTransform="translate(3.60172 15.7518) scale(10.6444)">
<stop offset="0.4345" stop-color="#FFCA28"/>
<stop offset="0.8723" stop-color="#FFB300"/>
</radialGradient>
<radialGradient id="paint1_radial_25_47" cx="0" cy="0" r="1" gradientUnits="userSpaceOnUse" gradientTransform="translate(14.7662 15.7542) scale(10.6439)">
<stop offset="0.4345" stop-color="#FFCA28"/>
<stop offset="0.8723" stop-color="#FFB300"/>
</radialGradient>
</defs>
</svg>
