<svg width="10" height="12" viewBox="0 0 10 12" fill="none" xmlns="http://www.w3.org/2000/svg">
<g id="&#240;&#159;&#166;&#134; icon &#34;user&#34;">
<g id="Group">
<path id="Vector" d="M7.16045 2.91036C7.16045 4.10349 6.19321 5.07073 5.00008 5.07073C3.80695 5.07073 2.83972 4.1035 2.83972 2.91036C2.83972 1.71723 3.80695 0.75 5.00008 0.75C6.19321 0.75 7.16045 1.71723 7.16045 2.91036Z" stroke="#864AF9" stroke-width="1.5" stroke-linecap="round" stroke-linejoin="round"/>
<g id="Vector_2">
<mask id="path-2-inside-1_15_137" fill="white">
<path d="M10 11.6414C10 9.38878 7.75902 7.56689 5 7.56689C2.24098 7.56689 0 9.38878 0 11.6414"/>
</mask>
<path d="M8.5 11.6414C8.5 12.4698 9.17157 13.1414 10 13.1414C10.8284 13.1414 11.5 12.4698 11.5 11.6414H8.5ZM-1.5 11.6414C-1.5 12.4698 -0.828427 13.1414 0 13.1414C0.828427 13.1414 1.5 12.4698 1.5 11.6414H-1.5ZM11.5 11.6414C11.5 8.28707 8.28477 6.06689 5 6.06689V9.06689C7.23327 9.06689 8.5 10.4905 8.5 11.6414H11.5ZM5 6.06689C1.71523 6.06689 -1.5 8.28707 -1.5 11.6414H1.5C1.5 10.4905 2.76673 9.06689 5 9.06689V6.06689Z" fill="#864AF9" mask="url(#path-2-inside-1_15_137)"/>
</g>
</g>
</g>
</svg>
